<?xml version="1.0" encoding="utf-8"?>
<!-- Generator: Adobe Illustrator 23.1.1, SVG Export Plug-In . SVG Version: 6.00 Build 0)  -->
<svg version="1.1" id="Layer_1" xmlns="http://www.w3.org/2000/svg" xmlns:xlink="http://www.w3.org/1999/xlink" x="0px" y="0px"
	 viewBox="0 0 1000 500" style="enable-background:new 0 0 1000 500;" xml:space="preserve">
<style type="text/css">
	.st0{fill:#222222;}
</style>
<path class="st0" d="M117.31,246.16c8.42-5.39,17.15-10.36,25.18-16.28c7.23-5.34,14.93-9.29,23.16-12.85
	c7.81-3.37,15.14-8.17,22.01-13.25c3.9-2.88,5.95-8.18,9.72-11.32c6.65-5.53,13.98-10.24,21.02-15.31
	c3.48-2.51,6.85-5.17,10.44-7.52c6.51-4.26,13.11-8.39,19.74-12.47c5.72-3.52,11.55-6.86,17.3-10.33c4.74-2.86,9.61-5.55,14.11-8.75
	c9.37-6.68,20.44-10.57,29.11-18.56c4.21-3.88,10.09-5.9,15.14-8.9c9.22-5.49,18.21-11.39,27.61-16.52
	c5.92-3.23,11.61-6.56,16.8-10.94c2.89-2.44,7.06-3.3,10.46-5.21c6.25-3.49,12.29-7.36,18.56-10.81c3.55-1.95,7.39-3.37,11.09-5.04
	c0.92-0.41,2.05-0.67,2.67-1.37c4.71-5.22,11.96-5.81,17.45-9.64c2.53-1.77,5.66-2.73,8.61-3.82c1.14-0.42,2.73-0.64,3.76-0.18
	c10.18,4.56,20.46,8.96,30.36,14.09c5.54,2.87,10.37,7.09,15.61,10.57c2.47,1.64,5.37,2.69,7.67,4.52
	c3.88,3.07,7.27,6.77,11.21,9.76c2.69,2.04,5.95,3.32,9.71,5.34c0.74-0.35,2.38-1.14,4.03-1.91c4.08-1.89,7.5-5.11,12.98-3.27
	c2.33,0.78,5.89-1.49,8.69-2.82c8.51-4.04,17.04-8.07,25.32-12.54c4.34-2.34,7.7,0.19,11.03,1.55c7.9,3.22,15.97,6.16,22.71,11.85
	c2.21,1.87,5.71,2.27,8.68,3.17c10.36,3.16,20.69,6.43,31.13,9.31c9.01,2.49,17.08,6.78,25.07,11.48c2.48,1.46,5.71,1.56,8.5,2.57
	c4.55,1.64,9.25,3.09,13.47,5.38c14.11,7.66,28.03,15.65,42.02,23.52c0.13,0.07,0.28,0.13,0.36,0.23
	c8.21,10.36,20.6,12.98,32.09,17.1c12.2,4.37,21.52,12.07,29.6,22.08c6.71,8.3,14.65,15.61,21.99,23.4
	c8.39,8.91,19.25,13.72,30.08,18.78c5.88,2.74,11.25,6.64,16.67,10.27c7.9,5.3,15.64,10.83,22.45,15.57
	c-8.97,1.92-18.74-1.87-28.66-4.47c-6.14-1.61-12.61-2.04-18.05-6.09c-12.38-9.23-24.51-18.71-34.93-30.21
	c-4.45-4.91-9.02-9.71-13.49-14.6c-4.94-5.4-10.65-9.35-17.91-11.29c-11.93-3.21-22.19-9.88-32.26-16.78
	c-7.3-5.01-14.19-10.79-21.94-14.95c-6.42-3.44-11.9-7.76-17.6-12.1c-4.04-3.07-9.55-4.21-14.46-6.08c-1.42-0.54-3.01-0.6-5.36-1.03
	c12.22,14.49,27.67,23.7,42.83,33.27c-0.16,0.35-0.32,0.7-0.48,1.05c-4.25-1.47-8.64-2.64-12.74-4.47
	c-13.29-5.95-26.05-12.81-36.49-23.26c-4.24-4.25-8.17-8.88-12.83-12.61c-3.27-2.62-7.46-4.15-11.37-5.88
	c-6.93-3.07-14.02-5.76-20.91-8.9c-9.66-4.41-19.24-9.02-28.78-13.71c-4.46-2.19-8.59-5.09-13.14-7.04c-2.91-1.25-6.3-1.33-8.55,2.3
	c4.67,8.24,3.58,16.61,0.17,25.04c-3.75,9.26-0.24,14.7,7.51,21.01c3.36,2.73,6.31,5.96,9.45,8.96c-0.57,0.13-1.13,0.25-1.7,0.38
	c-1.16,1.9-2.74,3.67-3.35,5.73c-0.7,2.36-0.54,4.97-0.82,8.33c1.93-1.31,3.55-2.4,5.17-3.49c5.25,3.95,13.6,21.16,12.5,26.44
	c-5.17-3.82-10.18-7.55-15.22-11.24c-2.64-1.93-5.37-3.85-8.37-0.59c-2.76,3.01-2.75,6.81,0.8,9.71
	c8.22,6.71,16.28,13.79,25.3,19.26c5.88,3.56,7.74,8.6,9.1,14.1c2.41,9.76,3.11,19.94,7.67,29.15c0.53,1.07,0.3,2.51,0.45,3.97
	c-2.69,0.47-4.47,0.17-6.4-2.58c-5.81-8.31-11.82-16.57-18.57-24.11c-4.04-4.52-9.85-7.39-14.42-11.5
	c-3.89-3.49-7.16-7.67-10.66-11.58c-0.77-0.86-1.32-1.91-2.62-2.62c-3.46,7.7,1.6,15.54-1.62,23.86c-1.8-3.51-3.61-6.22-4.64-9.21
	c-3.27-9.5-10.06-16.61-16.38-23.89c-4.99-5.75-11.03-10.59-16.68-15.76c-2.94-2.69-3.83-5.89-4.46-9.84
	c-1.27-7.94-3.3-15.83-5.85-23.47c-1.76-5.29-3.32-10.43-4.28-16c-1.59-9.28-9.24-14.34-16.91-18.85
	c-6.06-3.56-11.94-7.16-17.05-12.27c-10.09-10.1-20.89-19.49-31.72-29.47c-2.91,5.28-5.34,10.65-8.65,15.4
	c-2.48,3.55-5.9,6.54-9.27,9.35c-4.51,3.76-6.66,8.23-5.73,14.07c0.59,3.7-1.13,5.6-4.59,6.6c-1.41,0.41-3.26,1.35-3.76,2.53
	c-3.6,8.51-7.33,17.01-10.14,25.8c-1.41,4.38-0.92,9.36-1.43,14.06c-0.11,0.97-0.81,1.88-1.24,2.82c-0.84-0.81-2.15-1.48-2.46-2.45
	c-1.77-5.66-3.33-11.39-4.89-17.12c-0.88-3.24-1.62-6.51-2.62-10.59c-2.01,2.49-3.59,4.42-5.15,6.38
	c-7.25,9.05-14.56,18.05-21.64,27.24c-0.85,1.1-0.97,3.42-0.45,4.81c4.56,12.16,6.14,24.17,0.15,36.44
	c-5.31,10.89-13.11,11.14-20.87,3.49c-8.47-8.37-16.08-17.64-23.7-26.82c-4.66-5.62-10.55-6.57-18.33-0.96
	c-9.04,6.53-17.59,13.75-26.39,20.63c-8.92,6.98-17.77,14.07-26.88,20.81c-5.74,4.24-11.82,8.06-17.92,11.78
	c-2.63,1.6-5.62,2.87-8.61,3.54c-2.07,0.47-4.44-0.48-4.28-3.43c0.17-3.14,0.8-6.26,0.85-9.4c0.03-2.05,0.05-4.91-1.16-5.92
	c-1.1-0.92-4.32-0.52-5.85,0.46c-8.54,5.49-16.9,11.28-25.24,17.08c-6.89,4.78-13.14,10.95-20.67,14.22
	c-7.27,3.16-15.75,3.8-23.8,4.84c-9.82,1.27-19.74,1.79-29.62,2.63C117.56,247.35,117.43,246.76,117.31,246.16z"/>
<g>
	<g>
		<path class="st0" d="M125.13,373.3v54.98H112.6V310.53h20.57c17.69,0,26.39,7.63,26.39,27.1v5.38c0,15.99-5.62,22.55-11.99,24.79
			c7.47,2.77,10.94,8.4,10.94,24.15c0,10.06-0.18,28.89,1.15,36.33h-12.21c-1.49-7.34-1.23-27.13-1.23-35.38
			c0-15.26-2.15-19.6-13.81-19.6H125.13z M125.13,362.66h7.69c11.19,0,14.12-6.47,14.12-19.05v-5.24c0-10.75-2.93-17.19-14.73-17.19
			h-7.08V362.66z"/>
		<path class="st0" d="M220.26,390.7l-5.62,37.58h-12.69l19.34-117.75h17.85l20.14,117.75h-13.12l-6.06-37.58H220.26z
			 M238.48,379.18c-4.12-25.93-7.07-45.96-8.19-57.1h-0.51c-0.43,9.1-4.65,35.59-7.82,57.1H238.48z"/>
		<path class="st0" d="M317.61,310.53v117.75h-12.53V310.53H317.61z"/>
		<path class="st0" d="M370.3,428.28V310.53h14.95c6.35,21.79,22.72,83.52,24.65,93.14h0.27c-0.69-15.83-0.88-32.4-0.88-51.6v-41.54
			h11.81v117.75h-14.45c-6.27-22.1-23.14-86.9-25.37-96.28h-0.18c0.79,14.18,1.09,33,1.09,54.24v42.03H370.3z"/>
		<path class="st0" d="M486.48,428.28v-43.96c0-1.3-0.18-2.08-0.51-3.17l-21.65-70.62h13.78c5.85,21.3,12.9,46.7,14.85,57.5h0.18
			c2.28-11.36,9.44-37.14,14.84-57.5h13.28l-21.89,71.42c-0.18,0.79-0.35,1.73-0.35,3.51v42.82H486.48z"/>
		<path class="st0" d="M564.53,310.53h21.36c25.43,0,28.65,15.72,28.65,34.42v46.5c0,18.08-2.79,36.82-29.44,36.82h-20.57V310.53z
			 M577.06,417.4h7.1c14.26,0,17.6-8.06,17.6-23.48v-50.48c0-13.61-2.44-21.95-17.48-21.95h-7.21V417.4z"/>
		<path class="st0" d="M676.08,390.7l-5.62,37.58h-12.69l19.34-117.75h17.85l20.14,117.75h-13.12l-6.06-37.58H676.08z M694.3,379.18
			c-4.12-25.93-7.07-45.96-8.19-57.1h-0.51c-0.43,9.1-4.65,35.59-7.82,57.1H694.3z"/>
		<path class="st0" d="M773.61,428.28v-43.96c0-1.3-0.18-2.08-0.51-3.17l-21.65-70.62h13.78c5.85,21.3,12.9,46.7,14.86,57.5h0.18
			c2.28-11.36,9.44-37.14,14.84-57.5h13.28l-21.89,71.42c-0.18,0.79-0.35,1.73-0.35,3.51v42.82H773.61z"/>
		<path class="st0" d="M857.96,395.12v6.83c0,11.09,3.83,17.02,12.08,17.02c8.43,0,11.76-6.11,11.76-19.01
			c0-13.78-3.03-19.13-15.43-28.8c-12.59-9.86-18.99-15.8-18.99-33.16c0-14.92,4.47-29.23,22.95-29.13
			c17.53,0.1,22.16,11.76,22.16,26.71v5.46h-12.45v-5.13c0-9.78-1.91-16.09-9.97-16.09c-8.08,0-10.16,7.08-10.16,16.31
			c0,10.95,2.18,15.1,12.98,23.27c16.34,12.35,21.52,19.25,21.52,38.79c0,16.55-4.73,31.63-24.6,31.63
			c-19,0-24.39-12.45-24.39-27.96v-6.76H857.96z"/>
	</g>
</g>
</svg>
