<?xml version="1.0" encoding="utf-8"?>
<!-- Generator: Adobe Illustrator 23.1.1, SVG Export Plug-In . SVG Version: 6.00 Build 0)  -->
<svg version="1.1" id="Layer_1" xmlns="http://www.w3.org/2000/svg" xmlns:xlink="http://www.w3.org/1999/xlink" x="0px" y="0px"
	 viewBox="0 0 781.8 360.3" style="enable-background:new 0 0 781.8 360.3;" xml:space="preserve">
<path d="M0,203.3c8.6-5.5,17.6-10.6,25.7-16.6c7.4-5.4,15.2-9.5,23.7-13.2c8-3.5,15.4-8.4,22.5-13.5c4-3,6-8.4,9.9-11.5
	c6.8-5.6,14.3-10.4,21.4-15.6c3.6-2.6,6.9-5.3,10.6-7.7c6.6-4.4,13.4-8.6,20.1-12.8c5.8-3.6,11.8-7,17.7-10.5c4.8-3,9.8-5.7,14.4-9
	c9.6-6.8,20.8-10.8,29.7-19c4.3-4,10.3-6,15.4-9.1c9.4-5.6,18.6-11.6,28.2-16.9c6-3.3,11.8-6.7,17.2-11.1c3-2.5,7.3-3.4,10.7-5.3
	c6.3-3.6,12.6-7.6,19-11c3.7-2,7.6-3.5,11.3-5.1c0.9-0.4,2.1-0.7,2.8-1.4c4.8-5.3,12.3-5.9,17.8-9.8c2.6-1.8,5.8-2.8,8.8-3.9
	c1.1-0.4,2.8-0.6,3.9-0.2c10.4,4.7,20.9,9.2,31,14.4c5.6,3,10.6,7.3,15.9,10.8c2.6,1.6,5.5,2.8,7.9,4.6c4,3.2,7.5,6.9,11.4,10
	c2.8,2,6.1,3.4,9.9,5.4c0.7-0.4,2.5-1.1,4.1-1.9c4.2-1.9,7.7-5.2,13.3-3.4c2.3,0.8,6-1.5,8.9-2.9c8.7-4.1,17.4-8.3,25.8-12.8
	c4.4-2.3,7.9,0.2,11.2,1.5c8.1,3.3,16.3,6.3,23.2,12.2c2.2,1.9,5.8,2.3,8.9,3.3c10.6,3.3,21.1,6.5,31.8,9.5
	c9.2,2.6,17.5,6.9,25.6,11.7c2.6,1.5,5.8,1.6,8.7,2.7c4.6,1.6,9.4,3.2,13.8,5.5c14.4,7.9,28.6,15.9,42.9,24c0.1,0.1,0.3,0.1,0.4,0.2
	c8.4,10.6,21,13.3,32.8,17.5c12.5,4.5,22,12.4,30.2,22.6c6.8,8.5,15,15.9,22.5,23.9c8.6,9.1,19.6,14,30.7,19.2
	c6,2.8,11.4,6.7,17.1,10.5c8.1,5.4,15.9,11,23,15.9c-9.2,1.9-19.1-1.9-29.3-4.6c-6.2-1.6-12.9-2-18.4-6.2
	c-12.7-9.4-25-19.1-35.6-30.8c-4.6-5-9.2-9.9-13.8-14.9c-5-5.5-10.9-9.6-18.3-11.5c-12.2-3.3-22.7-10.1-33-17.2
	c-7.5-5.1-14.5-11-22.4-15.2c-6.5-3.5-12.2-8-18-12.4c-4.1-3.2-9.7-4.3-14.8-6.2c-1.4-0.5-3.1-0.6-5.5-1
	c12.5,14.8,28.3,24.2,43.7,34c-0.2,0.4-0.3,0.7-0.5,1.1c-4.3-1.5-8.8-2.7-13-4.6c-13.6-6-26.6-13.1-37.3-23.8
	c-4.3-4.3-8.4-9.1-13.1-12.9c-3.4-2.7-7.7-4.2-11.6-6c-7-3.2-14.3-5.9-21.3-9.1c-9.9-4.5-19.6-9.2-29.4-14
	c-4.6-2.2-8.8-5.2-13.4-7.1c-3-1.2-6.4-1.3-8.7,2.3c4.8,8.4,3.7,17,0.2,25.5c-3.9,9.5-0.2,15,7.7,21.4c3.5,2.8,6.4,6.1,9.7,9.2
	c-0.6,0.1-1.1,0.2-1.7,0.4c-1.2,1.9-2.8,3.8-3.4,5.8c-0.7,2.5-0.5,5.1-0.8,8.5c1.9-1.3,3.6-2.5,5.3-3.6c5.3,4,13.9,21.7,12.8,27
	c-5.3-3.9-10.4-7.8-15.5-11.4c-2.7-1.9-5.5-4-8.6-0.6c-2.9,3.1-2.9,6.9,0.8,9.9c8.4,6.8,16.6,14.1,25.8,19.7c6,3.7,7.9,8.8,9.3,14.4
	c2.5,10,3.2,20.3,7.9,29.7c0.5,1.1,0.3,2.6,0.5,4.1c-2.8,0.5-4.6,0.2-6.5-2.7c-5.9-8.5-12.1-17-19-24.6c-4.1-4.6-10-7.6-14.7-11.7
	c-4-3.6-7.4-7.9-10.9-11.8c-0.8-0.9-1.3-1.9-2.7-2.7c-3.6,7.9,1.6,15.8-1.6,24.4c-1.8-3.6-3.7-6.3-4.7-9.4
	c-3.4-9.7-10.3-17-16.7-24.4c-5.1-5.9-11.2-10.8-17.1-16.1c-3-2.8-3.9-6-4.6-10c-1.3-8.1-3.4-16.1-6-24c-1.8-5.4-3.4-10.6-4.4-16.3
	c-1.6-9.5-9.4-14.6-17.3-19.3c-6.2-3.7-12.2-7.4-17.4-12.6c-10.3-10.3-21.3-19.9-32.4-30.1c-3,5.4-5.4,10.8-8.8,15.7
	c-2.6,3.6-6,6.6-9.5,9.6c-4.6,3.9-6.8,8.4-5.8,14.4c0.6,3.8-1.1,5.7-4.7,6.7c-1.4,0.4-3.4,1.4-3.9,2.6c-3.7,8.7-7.5,17.4-10.3,26.3
	c-1.4,4.5-0.9,9.6-1.4,14.4c-0.1,1-0.8,1.9-1.2,2.9c-0.8-0.8-2.1-1.5-2.6-2.5c-1.8-5.8-3.4-11.6-5-17.5c-0.9-3.3-1.6-6.6-2.7-10.8
	c-2,2.6-3.7,4.5-5.2,6.5c-7.4,9.3-14.9,18.5-22.1,27.8c-0.9,1.1-1,3.5-0.4,4.9c4.7,12.5,6.2,24.7,0.1,37.2
	c-5.4,11.1-13.4,11.3-21.3,3.6c-8.7-8.6-16.4-18-24.2-27.4c-4.8-5.7-10.7-6.7-18.7-1c-9.2,6.6-18,14.1-27,21
	c-9.1,7.1-18.2,14.4-27.5,21.2c-5.8,4.3-12.1,8.3-18.3,12.1c-2.7,1.6-5.7,3-8.8,3.6c-2.1,0.5-4.5-0.5-4.4-3.5
	c0.2-3.2,0.8-6.4,0.8-9.6c0-2.1,0.1-5-1.2-6c-1.1-0.9-4.4-0.5-6,0.5c-8.7,5.6-17.3,11.5-25.7,17.5c-7,4.9-13.4,11.1-21.1,14.5
	c-7.5,3.3-16,3.9-24.3,4.9c-10,1.3-20.1,1.8-30.2,2.7C0.3,204.5,0.1,203.9,0,203.3z"/>
<g>
	<path d="M29.2,322.5H13.2v36.6H1.8v-90.5h25.4c8.9,0,15.6,2.3,20.1,6.9c4.6,4.6,6.8,11.4,6.8,20.3c0,5.6-1.2,10.5-3.7,14.6
		c-2.5,4.2-6,7.3-10.5,9.4l17.5,38.5v0.7H45.3L29.2,322.5z M13.2,312.8H27c4.8,0,8.6-1.5,11.4-4.6c2.8-3.1,4.3-7.2,4.3-12.3
		c0-11.6-5.3-17.4-15.8-17.4H13.2V312.8z"/>
	<path d="M137.1,335.4h-30.6l-7,23.7H87.8l29.2-90.5h9.8l29.2,90.5h-11.7L137.1,335.4z M109.5,325.7h24.7l-12.4-41.2L109.5,325.7z"
		/>
	<path d="M205.5,359.1h-11.4v-90.5h11.4V359.1z"/>
	<path d="M310.1,359.1h-11.4l-36.2-69.8v69.8H251v-90.5h11.4l36.4,70.1v-70.1h11.3V359.1z"/>
	<path d="M378.8,314.1l18.5-45.4h12.9l-25.7,56.8v33.8h-11.4v-33.8l-25.7-56.8h12.9L378.8,314.1z"/>
	<path d="M447.5,359.1v-90.5h21.6c10.6,0,18.8,3.3,24.6,9.9c5.8,6.6,8.8,15.9,8.8,27.9v15.2c0,12-3,21.2-8.9,27.8
		c-5.9,6.5-14.5,9.8-25.8,9.8H447.5z M458.9,278.4v71h9.1c8,0,13.8-2.3,17.5-6.9c3.7-4.6,5.6-11.4,5.7-20.4v-16.1
		c0-9.5-1.8-16.5-5.5-21s-9.2-6.7-16.6-6.7H458.9z"/>
	<path d="M587.9,335.4h-30.6l-7,23.7h-11.7l29.2-90.5h9.8l29.2,90.5H595L587.9,335.4z M560.2,325.7h24.7l-12.4-41.2L560.2,325.7z"/>
	<path d="M662.2,314.1l18.5-45.4h12.9l-25.7,56.8v33.8h-11.4v-33.8l-25.7-56.8h12.9L662.2,314.1z"/>
	<path d="M769.4,336.3c0-4.5-1.2-8-3.7-10.4c-2.4-2.4-6.9-4.7-13.2-7c-6.4-2.3-11.3-4.7-14.6-7.2c-3.4-2.5-5.9-5.4-7.6-8.6
		s-2.5-6.9-2.5-11c0-7.2,2.4-13.1,7.2-17.7c4.8-4.6,11.1-7,18.8-7c5.3,0,10,1.2,14.2,3.6c4.1,2.4,7.3,5.7,9.6,9.9s3.4,8.9,3.4,13.9
		h-11.4c0-5.6-1.3-9.9-4-13c-2.7-3.1-6.6-4.6-11.6-4.6c-4.6,0-8.2,1.3-10.7,3.9s-3.8,6.2-3.8,10.8c0,3.8,1.4,7,4.1,9.6
		c2.7,2.6,7,4.9,12.7,6.9c8.9,2.9,15.3,6.6,19.1,10.9c3.8,4.3,5.8,9.9,5.8,16.9c0,7.3-2.4,13.2-7.2,17.6c-4.8,4.4-11.3,6.6-19.5,6.6
		c-5.3,0-10.1-1.2-14.6-3.5c-4.5-2.3-8-5.5-10.5-9.7c-2.5-4.2-3.8-8.9-3.8-14.3h11.4c0,5.6,1.6,9.9,4.7,13.1
		c3.1,3.1,7.4,4.7,12.8,4.7c5,0,8.8-1.3,11.3-3.9C768.1,344.2,769.4,340.7,769.4,336.3z"/>
</g>
</svg>
