<?xml version="1.0" encoding="utf-8"?>
<!-- Generator: Adobe Illustrator 23.1.1, SVG Export Plug-In . SVG Version: 6.00 Build 0)  -->
<svg version="1.1" id="Capa_1" xmlns="http://www.w3.org/2000/svg" xmlns:xlink="http://www.w3.org/1999/xlink" x="0px" y="0px"
	 viewBox="0 0 482 321.8" style="enable-background:new 0 0 482 321.8;" xml:space="preserve">
<path d="M464.1,321.8H13.5c-7.5,0-13.5-6-13.5-13.5l0,0c0-7.5,6-13.5,13.5-13.5h450.6c7.5,0,13.5,6,13.5,13.5l0,0
	C477.6,315.8,471.6,321.8,464.1,321.8z"/>
<path d="M464.1,174.4H13.5c-7.5,0-13.5-6-13.5-13.5l0,0c0-7.5,6-13.5,13.5-13.5h450.6c7.5,0,13.5,6,13.5,13.5l0,0
	C477.6,168.4,471.6,174.4,464.1,174.4z"/>
<path d="M464.1,27H13.5C6,27,0,21,0,13.5l0,0C0,6,6,0,13.5,0h450.6c7.5,0,13.5,6,13.5,13.5l0,0C477.6,21,471.6,27,464.1,27z"/>
</svg>
