<?xml version="1.0" encoding="utf-8"?>
<!-- Generator: Adobe Illustrator 23.1.1, SVG Export Plug-In . SVG Version: 6.00 Build 0)  -->
<svg version="1.1" id="Capa_1" xmlns="http://www.w3.org/2000/svg" xmlns:xlink="http://www.w3.org/1999/xlink" x="0px" y="0px"
	 viewBox="0 0 489 489" style="enable-background:new 0 0 489 489;" xml:space="preserve">
<g>
	<path d="M440.1,422.7l-8-315.3c-0.6-7-6.5-12.3-13.4-12.3h-77.6C340.3,42.5,297.3,0,244.5,0s-95.8,42.5-96.6,95.1H70.3
		c-7,0-12.8,5.3-13.4,12.3l-8,315.3c0,0.4-0.1,0.8-0.1,1.2c0,46.6,24.8,65.1,73.4,65.1h244.6c45.2,0,73.4-16.4,73.4-65.1
		C440.2,423.5,440.2,423.1,440.1,422.7z M244.5,37c37.9,0,58.8,20.4,59.6,58.1H184.9C185.7,57.4,206.6,37,244.5,37z M174.8,122.2
		h139.3 M341.1,132.2h55.2l6.9,292.3c0,21.6-17.2,27.5-36.4,27.5H122.2c-16.8,0-36.4-2.8-36.4-27.5l6.8-292.3h55.2"/>
</g>
</svg>
